<svg xmlns="http://www.w3.org/2000/svg" width="512" height="512" viewBox="0 0 512 512">
  <rect width="512" height="512" fill="#0a0a0a"/>
  <g transform="translate(116, 100) scale(0.55)">
    <path d="M357.2 72c-11.8 0-23.2 2.4-33.8 7.1C296.6 30.4 248.6 0 196 0c-70.7 0-128 57.3-128 128 0 5.4.4 10.7 1 15.9C27.6 165.3 0 207.4 0 256c0 70.7 57.3 128 128 128h8.2l-18.6 93.1c-2.4 12.1 6.7 23.4 19.1 23.7l.8.1c9.5 0 17.8-6.8 19.5-16.2L179.4 384h25.2l22.4 100.7c2 8.9 9.8 15.3 19 15.3h.5c12.4-.3 21.5-11.6 19.1-23.7L247.1 384h8.9c35.3 0 64-28.7 64-64v-25.8l59.5-17c24.3-6.9 41.5-28.3 43.9-53.2H448c35.3 0 64-28.7 64-64v-24c0-35.3-28.7-64-64-64h-90.8zM384 168c-8.8 0-16-7.2-16-16s7.2-16 16-16 16 7.2 16 16-7.2 16-16 16z" fill="#fafafa"/>
  </g>
</svg>
